<?xml version="1.0" encoding="UTF-8" standalone="no"?>
<svg
   xmlns:dc="http://purl.org/dc/elements/1.1/"
   xmlns:cc="http://creativecommons.org/ns#"
   xmlns:rdf="http://www.w3.org/1999/02/22-rdf-syntax-ns#"
   xmlns:svg="http://www.w3.org/2000/svg"
   xmlns="http://www.w3.org/2000/svg"
   xmlns:sodipodi="http://sodipodi.sourceforge.net/DTD/sodipodi-0.dtd"
   xmlns:inkscape="http://www.inkscape.org/namespaces/inkscape"
   height="100px"
   width="100px"
   fill="#000000"
   version="1.1"
   x="0px"
   y="0px"
   viewBox="0 0 100 100"
   enable-background="new 0 0 100 100"
   xml:space="preserve"
   id="svg26"
   sodipodi:docname="car.svg"
   inkscape:version="1.0.1 (3bc2e813f5, 2020-09-07)"><metadata
     id="metadata32"><rdf:RDF><cc:Work
         rdf:about=""><dc:format>image/svg+xml</dc:format><dc:type
           rdf:resource="http://purl.org/dc/dcmitype/StillImage" /><dc:title></dc:title></cc:Work></rdf:RDF></metadata><defs
     id="defs30" /><sodipodi:namedview
     pagecolor="#ffffff"
     bordercolor="#666666"
     borderopacity="1"
     objecttolerance="10"
     gridtolerance="10"
     guidetolerance="10"
     inkscape:pageopacity="0"
     inkscape:pageshadow="2"
     inkscape:window-width="1920"
     inkscape:window-height="986"
     id="namedview28"
     showgrid="false"
     inkscape:zoom="8"
     inkscape:cx="50"
     inkscape:cy="33.791667"
     inkscape:window-x="-11"
     inkscape:window-y="-11"
     inkscape:window-maximized="1"
     inkscape:current-layer="svg26"
     inkscape:document-rotation="0" /><g
     id="g24"><path
       id="path22"
       d="m 27.800781,10.5 c -4.6,0 -8.50039,3.300781 -9.40039,7.800781 L 13.800781,43 h -0.201172 c -2.8,0.4 -7.6992184,3.600781 -7.6992184,9.800781 V 74 h 6.9003904 v 7.400391 c 0,9.1 12.798828,9 12.798828,0 V 74 h 50.59961 v 7.400391 c 0,9 12.90039,9.1 12.90039,0 V 74 H 96 V 52.900391 C 95.9,46.700391 90.999609,43.4 88.099609,43 L 83.400391,18.300781 C 82.600391,13.800781 78.6,10.5 74,10.5 Z M 31,16.099609 h 40 c 3.3,0 6.200781,2.39961 6.800781,5.59961 l 4,21.300781 h -7.701172 l -0.40039,-2.099609 c -0.5,-2.8 -1.898438,-4.700782 -3.898438,-5.800782 -0.9,-0.5 -1.800781,-0.8 -2.800781,-1 -0.8,-0.2 -1.600391,-0.199218 -2.400391,-0.199218 -0.8,0 -1.60039,0.09922 -2.40039,0.199218 -1,0.2 -1.998828,0.6 -2.798828,1 -2,1.1 -3.400391,3.000782 -3.900391,5.800782 L 55.099609,43 H 46.75 c -0.0091,0.05884 -0.0312,0.03354 -0.05469,0 h -0.335937 c -0.141768,0.03602 -0.301521,0.02733 -0.429687,0.0059 -0.03623,-0.0061 -0.110822,0.01118 -0.107422,-0.02539 0.0025,-0.02697 0.0092,-0.05336 0.01367,-0.08008 -0.01173,-4.05e-4 -0.02343,-0.0015 -0.03516,-0.002 -0.029,0.0031 -0.08174,0.01037 -0.08203,0.0078 -4.46e-4,-0.0039 -1.37e-4,-0.0078 0,-0.01172 -0.130236,-0.0045 -0.26044,-0.01015 -0.390625,-0.01367 -0.03742,0.04347 -0.06873,0.09219 -0.109375,0.132813 -0.04598,0.04595 -0.128539,-0.01082 -0.193359,-0.01563 -0.03891,-0.0029 -0.156158,-0.0078 -0.117188,-0.0059 0.04126,0.002 0.03922,-1.39e-4 0.08984,-0.0078 -0.174916,0.02858 -0.351189,0.01557 -0.527344,0.01563 -0.123888,7.03e-4 -0.247204,1.49e-4 -0.371094,0 -0.124698,-6.6e-5 -0.250302,0 -0.375,0 -0.125017,-1.1e-5 -0.249982,-2e-6 -0.375,0 h -0.5 -0.376953 -0.654297 -0.460937 -0.384766 -0.373047 -0.375 c -0.336481,0.0034 -0.466028,0.01579 -0.730468,-0.138672 -0.02021,0.0029 -0.04023,0.0057 -0.06055,0.0078 -0.130661,0.01347 -0.128834,0.01177 -0.242188,0.01367 -0.02929,0.0014 -0.05694,-0.0068 -0.08594,-0.0078 -0.125401,0.01659 -0.261864,0.02125 -0.427735,-0.01563 -0.104484,-0.02322 -0.09248,-0.01934 -0.158203,-0.0332 -0.05859,-0.002 -0.117167,-0.0042 -0.175781,-0.0059 h -0.002 C 38.226329,42.854407 38.091449,42.875 37.9375,42.875 H 37.603516 37.375 37.148438 37.03125 c -0.02083,0 -0.0635,0.02081 -0.0625,0 1.27e-4,-0.0025 5.7e-5,-0.0042 0,-0.0059 -0.02474,0.0015 -0.04062,0.0078 -0.06836,0.0078 -0.02961,0 -0.708576,0.01364 -0.417969,-0.02734 -0.167797,0.04126 -0.431578,0.110968 -0.597656,0.03906 -0.0091,-0.004 -0.0165,-0.0112 -0.02539,-0.01563 -0.08333,8.01e-4 -0.160857,0.008 -0.251953,0.002 -0.03966,-10e-7 -0.07945,-2e-6 -0.119141,0 -0.04718,0.0159 -0.0956,0.02391 -0.142578,0.04102 -0.380956,0.138718 -0.661463,0.08938 -0.839844,-0.04102 h -0.0039 c -0.441227,-2e-4 -0.881046,-0.001 -1.322265,0.002 -0.292308,3.23e-4 -0.584664,-0.0042 -0.876954,-0.0039 -0.06101,0.01015 -0.110615,0.03008 -0.179687,0.0332 -1.634716,0.07396 -3.275278,0.155753 -4.910156,0.0332 L 27.199219,43 h -7 l 4,-21.300781 c 0.6,-3.3 3.500781,-5.59961 6.800781,-5.59961 z M 64.599609,20.5 c -3.3,0 -6,2.7 -6,6 0,3.3 2.7,6 6,6 3.3,0 6,-2.7 6,-6 0,-3.4 -2.7,-6 -6,-6 z m -45,30.300781 c 2.6,0 4.701172,2.099219 4.701172,4.699219 0.1,2.6 -2.101172,4.699219 -4.701172,4.699219 -2.6,0 -4.799218,-2.099219 -4.699218,-4.699219 0,-2.6 2.099218,-4.799219 4.699218,-4.699219 z m 62.800782,0 c 2.6,0 4.699218,2.099219 4.699218,4.699219 0,2.6 -2.199218,4.699219 -4.699218,4.699219 -2.6,0 -4.700782,-2.099219 -4.800782,-4.699219 0,-2.6 2.100782,-4.799219 4.800782,-4.699219 z" /></g></svg>
