<svg height='100px' width='100px'  fill="#000000" xmlns="http://www.w3.org/2000/svg" xmlns:xlink="http://www.w3.org/1999/xlink" version="1.1" x="0px" y="0px" viewBox="0 0 100 100" enable-background="new 0 0 100 100" xml:space="preserve"><g><path d="M88.1,43L88.1,43l-4.7-24.7c-0.8-4.5-4.8-7.8-9.4-7.8H27.8c-4.6,0-8.5,3.3-9.4,7.8L13.8,43h-0.2c-2.8,0.4-7.7,3.6-7.7,9.8   V74h6.9v7.4c0,9.1,12.8,9,12.8,0V74h50.6v7.4c0,9,12.9,9.1,12.9,0V74h6.9V52.9C95.9,46.7,91,43.4,88.1,43z M19.6,60.2   c-2.6,0-4.8-2.1-4.7-4.7c0-2.6,2.1-4.8,4.7-4.7c2.6,0,4.7,2.1,4.7,4.7C24.4,58.1,22.2,60.2,19.6,60.2z M74.1,43l-0.4-2.1   c-0.5-2.8-1.9-4.7-3.9-5.8c-0.9-0.5-1.8-0.8-2.8-1c-0.8-0.2-1.6-0.2-2.4-0.2c-0.8,0-1.6,0.1-2.4,0.2c-1,0.2-2,0.6-2.8,1   c-2,1.1-3.4,3-3.9,5.8L55.1,43h-8.8l-0.4-2.1c-0.5-2.8-1.9-4.7-3.9-5.8c-0.9-0.5-1.8-0.8-2.8-1c-0.8-0.2-1.6-0.2-2.4-0.2   s-1.6,0.1-2.4,0.2c-1,0.2-2,0.6-2.8,1c-2,1.1-3.4,3-3.9,5.8L27.2,43h-7l4-21.3c0.6-3.3,3.5-5.6,6.8-5.6h40c3.3,0,6.2,2.4,6.8,5.6   l4,21.3H74.1z M82.4,60.2c-2.6,0-4.7-2.1-4.8-4.7c0-2.6,2.1-4.8,4.8-4.7c2.6,0,4.7,2.1,4.7,4.7C87.1,58.1,84.9,60.2,82.4,60.2z    M42.7,26.5c0,3.3-2.7,6-6,6s-6-2.7-6-6s2.7-6,6-6S42.7,23.1,42.7,26.5z M70.6,26.5c0,3.3-2.7,6-6,6c-3.3,0-6-2.7-6-6s2.7-6,6-6   C67.9,20.5,70.6,23.1,70.6,26.5z"></path></g></svg>
